<svg width="139" height="107" viewBox="0 0 139 107" fill="none" xmlns="http://www.w3.org/2000/svg">
<path d="M48.9539 6.44577C48.9552 6.44515 48.9565 6.44453 48.9579 6.44391C49.2893 6.19909 49.7609 5.85044 50.1934 5.5299C52.9675 3.58937 55.7386 1.24704 64.5184 1.2343C76.9509 1.21627 82.8949 0.897819 94.3021 5.73504C104.303 9.97577 117.121 15.6133 123.035 19.005C127.177 21.3809 130.469 23.1428 132.592 26.3443C134.484 29.1971 135.435 33.4325 136.351 38.0257C137.129 41.9226 137.578 54.1597 135.755 66.9597C135.103 71.5405 133.059 77.2153 131.562 84.124C129.443 93.9 129.497 101.547 125.339 102.125C123.662 102.358 119.554 101.949 109.405 101.959C102.371 101.966 91.7382 102.139 75.2635 102.518C58.7888 102.897 37.1133 103.182 25.0075 103.979C10.3801 104.942 6.25613 105.919 4.2816 104.906C3.48334 104.496 3.26951 103.737 3.21363 102.971C3.15774 102.204 3.22862 101.448 3.42409 100.613C4.23441 97.1495 5.58594 90.468 8.40058 82.757C9.89983 78.6496 10.664 73.9161 14.2216 70.3969C17.0741 67.5751 21.0648 64.6442 26.5388 63.5791C37.8825 61.3719 42.0946 59.8841 43.9028 56.6517C46.2102 52.5272 46.2612 47.5586 53.6405 43.1625C59.0287 39.9525 76.0576 37.9036 74.8366 32.7772C74.7506 32.4163 73.922 32.3326 73.0576 32.4728C68.7436 33.1726 53.9783 38.1115 38.9033 37.7347C22.6305 37.328 -4.17493 33.4054 1.91189 31.5409C5.6513 30.3955 20.4204 28.5834 27.93 24.6122C31.7511 22.5915 34.7926 20.8635 36.735 18.038C38.8148 15.0127 40.4682 11.0403 46.1107 7.90237C47.0784 7.36419 48.028 6.88028 48.9539 6.44577Z" fill="#314FF8"/>
<path d="M63.5729 3.92747C63.8269 3.96874 64.0868 3.90745 64.2956 3.75708C64.5043 3.6067 64.6448 3.37956 64.6861 3.12562C64.7273 2.87168 64.666 2.61174 64.5157 2.40299C64.3653 2.19424 64.1381 2.05378 63.8842 2.01251C57.1948 1.6766 51.3164 4.03802 45.8083 6.96098C45.752 6.99201 45.6956 7.02322 45.6392 7.0546C42.857 8.57175 40.3752 10.8003 38.5796 13.4042C37.6584 14.7011 36.883 16.0558 36.058 17.2834C36.0133 17.3497 35.9686 17.4153 35.9237 17.4802C34.0622 20.1967 30.9021 21.8715 27.7854 23.5379C27.6759 23.5959 27.5655 23.6543 27.4545 23.7129C19.794 27.4378 10.9482 28.4408 2.26395 30.3708C2.05808 30.4232 1.8167 30.4887 1.60911 30.5525C1.47019 30.5951 1.33967 30.6402 1.21522 30.69C1.08749 30.7427 0.988408 30.7823 0.79931 30.8908C0.71551 30.9402 0.632779 30.9953 0.550605 31.0612C0.509541 31.0941 0.468643 31.1298 0.428168 31.169C0.373544 31.2217 0.309202 31.2926 0.253701 31.3695C0.0144708 31.6566 -0.092836 32.2627 0.0978572 32.6575C0.432712 33.3211 0.743992 33.3983 0.967174 33.5611C1.24824 33.7246 1.41363 33.7969 1.65496 33.9008C2.5171 34.2563 3.334 34.4797 4.17079 34.6981C5.82088 35.1182 7.45488 35.4377 9.10534 35.734C12.3852 36.3162 15.6931 36.7761 18.9862 37.1748C25.5925 37.9593 32.2129 38.5392 38.8786 38.7219C39.7835 38.7442 40.6877 38.7478 41.5902 38.7346C52.4075 38.6223 63.0574 35.8796 73.2182 33.4627C73.4724 33.4214 73.7356 33.4027 73.9518 33.4153C74.0569 33.4207 74.1552 33.4385 74.1829 33.4482C74.1949 33.4508 74.1873 33.4556 74.1248 33.4142C74.0708 33.3792 73.9154 33.2434 73.8608 33.0096C73.8802 33.0912 73.8907 33.1662 73.8944 33.2374C73.9139 33.5649 73.7841 33.9111 73.4677 34.2817C68.3125 38.457 60.0593 38.7272 53.1132 42.2774C52.0753 42.8943 51.0682 43.5873 50.1318 44.3729C46.2087 47.3372 44.8502 52.4972 43.0036 56.1487C42.4985 57.0627 41.7443 57.7888 40.8037 58.3786C36.6628 60.7334 31.3262 61.493 26.3359 62.5363C25.1501 62.7647 23.9846 63.0869 22.8505 63.5013C19.2787 64.7965 16.1098 67.0131 13.4699 69.6369C12.6281 70.4683 11.8957 71.405 11.2799 72.3979C9.28596 75.609 8.55704 79.2111 7.39901 82.3914C7.02787 83.409 6.67326 84.4323 6.33422 85.4603C4.70625 90.3557 3.49465 95.4055 2.38598 100.37C2.18585 101.215 2.08062 102.136 2.15027 103.048C2.16823 103.292 2.19978 103.55 2.2629 103.822C2.40177 104.566 3.02648 105.469 3.81653 105.812C4.08111 105.94 4.35122 106.033 4.61322 106.103C5.55096 106.342 6.37854 106.332 7.17898 106.327C13.2862 106.016 19.0952 105.329 25.0737 104.984C25.9705 104.926 26.8964 104.872 27.8067 104.823C43.5899 104.049 59.4503 103.933 75.2874 103.558C75.9898 103.542 76.6628 103.526 77.3647 103.511C88.0416 103.277 98.7438 103.021 109.406 102.987C109.951 102.986 110.48 102.987 111.016 102.988C115.829 102.944 120.354 103.317 125.48 103.141C126.083 103.06 126.7 102.835 127.215 102.486C130.336 99.7728 130.191 96.3709 130.912 93.3867C131.453 90.3339 131.93 87.3233 132.585 84.3456C132.707 83.7877 132.832 83.2358 132.964 82.6794C134.132 77.5371 135.962 72.5678 136.844 67.1147C136.917 66.6033 136.987 66.0959 137.054 65.584C138.154 56.3856 138.721 47.2205 137.45 37.8066C137.372 37.4151 137.293 37.0247 137.213 36.6323C136.423 32.9856 135.737 29.1845 133.546 25.7119C133.334 25.391 133.109 25.08 132.872 24.779C130.312 21.567 126.778 19.8333 123.627 17.9717C123.365 17.8202 123.072 17.6556 122.807 17.5091C113.643 12.6319 104.21 8.66098 94.7786 4.61129C94.6177 4.54301 94.4578 4.47573 94.2989 4.40942C87.4409 1.38887 79.6892 -0.0556754 72.2463 0.0173693C69.6557 -0.0155897 67.09 0.00811362 64.5167 0.0105318C64.4708 0.0105982 64.4251 0.0107267 64.3796 0.0109169C59.3 -0.0735272 53.5296 1.3316 49.6636 4.77254L49.643 4.78736C49.638 4.79129 49.6329 4.79522 49.6278 4.79916C49.3571 5.0093 49.177 5.34221 48.997 5.67565C48.9074 5.84207 48.8169 6.00929 48.7161 6.16066C48.6652 6.23667 48.6125 6.30817 48.5543 6.37489C48.5256 6.40797 48.4952 6.44007 48.4648 6.46957C48.4483 6.48528 48.4326 6.49976 48.4172 6.51338C48.4083 6.52106 48.4014 6.52702 48.3924 6.53444C48.3877 6.53827 48.3852 6.54042 48.3801 6.54446C48.3778 6.5463 48.3759 6.54787 48.3743 6.54913C48.3739 6.54951 48.3719 6.551 48.3712 6.55157C48.3708 6.5519 48.3705 6.55212 48.3705 6.55216C48.3705 6.55217 48.3706 6.55214 48.3708 6.552C48.3724 6.55088 48.3656 6.55553 48.378 6.54704C48.3836 6.54403 48.3749 6.54663 48.4132 6.52733C48.4361 6.52609 48.4086 6.49787 48.572 6.50788C48.6678 6.49659 48.826 6.71531 48.7807 6.80858C48.7643 6.88474 48.7476 6.89639 48.7368 6.91522C48.7019 6.96044 48.7032 6.95283 48.697 6.95987C48.6831 6.97187 48.6854 6.96947 48.6833 6.97123C48.6813 6.97284 48.6813 6.97279 48.6812 6.97286C48.6872 6.96791 48.6979 6.95983 48.7061 6.95375C49.3957 6.44348 50.0854 5.93393 50.7754 5.42397C50.831 5.38282 50.8681 5.32125 50.8783 5.2528C50.8886 5.18435 50.8713 5.11462 50.8301 5.05895C50.789 5.00329 50.7274 4.96625 50.659 4.95598C50.5905 4.94571 50.5208 4.96305 50.4651 5.00419C49.775 5.51428 49.0859 6.02331 48.3952 6.53444C48.3862 6.54108 48.3781 6.54689 48.3665 6.55512C48.3656 6.55578 48.3651 6.55615 48.3627 6.55799C48.3605 6.55988 48.3627 6.55756 48.3488 6.56959C48.3426 6.57664 48.3439 6.56903 48.309 6.61426C48.2982 6.63309 48.2815 6.64474 48.2651 6.7209C48.2198 6.81417 48.3779 7.03289 48.4738 7.0216C48.6371 7.03161 48.6097 7.00339 48.6325 7.00215C48.6708 6.98284 48.6622 6.98543 48.6679 6.98239C48.6809 6.97347 48.6744 6.97786 48.6761 6.97669C48.6766 6.97636 48.677 6.97609 48.6774 6.97583C48.6781 6.97532 48.6788 6.97486 48.6795 6.97435C48.6809 6.97342 48.6832 6.97179 48.6837 6.97145C48.6856 6.97017 48.6878 6.96867 48.6904 6.96693C48.696 6.9631 48.6988 6.96136 48.704 6.95796C48.7139 6.95141 48.7217 6.94663 48.7317 6.94034C48.7494 6.92953 48.7679 6.91878 48.7879 6.90764C48.8251 6.88728 48.8648 6.86768 48.9049 6.84995C48.9859 6.81393 49.0698 6.78457 49.1575 6.75828C49.3319 6.70634 49.5184 6.66887 49.704 6.63188C50.0758 6.55733 50.4473 6.48203 50.728 6.28359C50.7332 6.27987 50.7385 6.27615 50.7437 6.27244L50.7232 6.28725C54.713 3.13942 59.4338 2.44562 64.3898 2.45844C64.4331 2.45826 64.4766 2.45814 64.5202 2.45808C67.1017 2.45557 69.6646 2.432 72.2139 2.46423C79.5673 2.41258 86.6476 3.73515 93.3591 6.66277C93.5135 6.72712 93.669 6.79246 93.8255 6.8588C103.216 10.8835 112.712 14.8621 121.655 19.5979C121.911 19.7385 122.192 19.8954 122.442 20.0382C125.65 21.893 128.967 23.5508 131.073 26.2027C131.273 26.4529 131.461 26.7106 131.638 26.9767C133.479 29.8154 134.254 33.5007 135.017 37.0832C135.097 37.4699 135.175 37.8562 135.253 38.2449C136.452 46.9949 135.943 56.3354 134.869 65.3017C134.804 65.8045 134.737 66.3027 134.667 66.8047C133.877 71.8645 132.095 76.9744 130.921 82.1997C130.788 82.7675 130.662 83.3315 130.539 83.9024C129.023 89.7029 129.32 97.1491 126.075 100.782C125.813 100.957 125.528 101.064 125.198 101.11C120.793 101.246 115.754 100.898 111.023 100.933C110.484 100.931 109.952 100.93 109.404 100.931C98.7006 100.958 88.0012 101.197 77.3177 101.431C76.6155 101.447 75.9422 101.462 75.2396 101.478C59.4112 101.857 43.5636 102.01 27.6973 102.807C26.7808 102.858 25.8473 102.913 24.9413 102.974C18.9782 103.329 12.9582 104.042 7.14795 104.337C6.42468 104.348 5.69186 104.321 5.14526 104.165C4.99303 104.122 4.86071 104.066 4.74666 103.999C4.50094 103.841 4.4347 103.704 4.33972 103.339C4.30963 103.21 4.28901 103.059 4.27698 102.893C4.22682 102.224 4.29861 101.551 4.4622 100.856C5.58047 95.8493 6.76005 90.9382 8.35847 86.1279C8.69076 85.1204 9.03841 84.1183 9.40215 83.1226C10.6249 79.72 11.3483 76.3144 13.096 73.5263C13.633 72.661 14.2573 71.8645 14.9733 71.1568C17.4507 68.6952 20.3478 66.6813 23.5831 65.5044C24.611 65.1279 25.6657 64.8334 26.7417 64.6219C31.8148 63.513 36.9854 62.8729 41.9028 60.1212C43.0441 59.4124 44.121 58.3978 44.802 57.1548C46.9567 52.8132 47.9616 48.6335 51.4586 45.9543C52.2951 45.2524 53.2098 44.6196 54.1678 44.0476C60.3944 40.7287 68.3654 40.8466 74.9799 35.5736C75.4927 34.9905 75.9607 34.092 75.8978 33.133C75.8876 32.9366 75.8588 32.7397 75.8123 32.5448C75.7217 32.1542 75.4526 31.8902 75.2689 31.7663C75.0741 31.6336 74.9188 31.5778 74.7786 31.5326C74.5008 31.4486 74.2809 31.4266 74.0683 31.4127C73.6473 31.3902 73.2718 31.4233 72.897 31.4829C62.353 33.9863 52.1556 36.6407 41.5614 36.7608C40.6837 36.7736 39.8055 36.7697 38.9279 36.7475C32.3633 36.563 25.7778 35.965 19.2317 35.1656C15.9686 34.7598 12.6902 34.2929 9.46839 33.7129C7.84982 33.4185 6.24706 33.1003 4.68518 32.6999C3.90157 32.496 3.12142 32.2732 2.45804 31.997C2.28019 31.9211 2.15883 31.8639 2.02398 31.785C1.91994 31.7482 1.83533 31.5672 2.00742 31.8658C2.11363 32.0565 2.03793 32.4733 1.92692 32.5836C1.82058 32.7145 1.82934 32.6772 1.84696 32.6732C1.91451 32.6347 2.02534 32.5877 2.21466 32.5294C2.37856 32.479 2.58959 32.4215 2.77538 32.3742C11.2104 30.4812 20.169 29.518 28.4056 25.5115C28.5174 25.4522 28.6287 25.3932 28.7394 25.3343C31.8617 23.641 35.3026 21.8521 37.5463 18.5957C37.595 18.5247 37.6433 18.4535 37.6913 18.3819C38.5745 17.0559 39.3211 15.7412 40.1772 14.5313C41.841 12.1162 44.0152 10.1588 46.5821 8.75014C46.6363 8.72001 46.6904 8.69005 46.7445 8.66026C51.9296 5.84403 57.9956 3.63735 63.5729 3.92747Z" fill="#FDFBEF"/>
<path d="M76.0722 71.5212C76.3462 66.9072 76.3902 62.5392 76.3263 58.5296C60.5663 58.4261 52.3282 59.0718 51.3577 60.0761C49.0082 62.5077 41.7484 65.1088 36.8157 72.6051C31.2653 81.0402 27.9876 89.5477 28.829 97.0611L28.8369 97.131C29.0555 99.0892 29.3573 101.792 34.0473 102.123C58.1866 103.823 67.7387 106.056 69.334 102.511C70.0358 100.951 70.5745 99.2548 70.8672 97.6768C71.4983 94.274 74.9726 90.0397 76.0722 71.5212Z" fill="#314FF8"/>
<path d="M56.563 2.70808C56.3347 2.62894 56.0844 2.64372 55.867 2.74917C55.6497 2.85461 55.4831 3.04209 55.404 3.27034C55.3248 3.4986 55.3396 3.74895 55.4451 3.96631C55.5505 4.18367 55.738 4.35024 55.9662 4.42937C59.4011 5.31744 62.5397 6.05842 65.5246 7.42402C65.5466 7.43422 65.5686 7.44444 65.5905 7.45469C66.7733 8.00392 67.8389 8.75127 68.7881 9.6624C71.6563 12.4985 73.7143 16.3591 76.1844 19.8617C76.2014 19.8864 76.2183 19.9111 76.2353 19.9359C78.3639 22.985 78.6352 26.9954 77.9575 30.7553C77.9512 30.791 77.9449 30.8267 77.9385 30.8624C77.7714 31.9043 76.7549 32.788 75.6709 33.9683C75.648 33.9943 75.6252 34.0204 75.6024 34.0467C73.2663 47.6218 76.2382 59.0446 75.0076 71.458C75.0047 71.5063 75.0018 71.5546 74.9989 71.6028C74.5008 80.519 73.0887 88.8311 69.7771 97.4746C69.7591 97.5708 69.7401 97.6672 69.7203 97.7636C69.417 99.2275 68.9139 100.672 68.2937 102.042C68.2726 102.088 68.2499 102.131 68.2252 102.171C59.4313 104.872 45.5849 101.229 34.1316 100.926C33.962 100.914 33.8096 100.899 33.6456 100.88C31.2443 100.62 30.1411 99.5239 30.0139 96.9284C29.9897 96.7146 29.9691 96.4998 29.9521 96.284C29.3989 88.1623 33.2835 80.2069 37.8005 73.2531C37.9038 73.0959 38.0082 72.9409 38.1135 72.7881C41.4847 67.6317 46.7529 65.0374 52.1771 60.8678C52.0128 61.0019 52.2061 60.8582 52.358 60.8192C61.2803 59.2142 71.3698 59.6907 80.9494 59.7067C81.1287 59.7092 81.3073 59.7116 81.4851 59.7137C91.9527 59.8348 102.514 59.2778 112.851 57.3229L112.882 57.3168C112.959 57.3004 113.035 57.2841 113.112 57.2679C116.116 56.6279 119.113 55.988 122.116 55.3552C124.919 54.7758 127.73 54.1437 130.486 53.7353L130.444 53.7406C130.462 53.7387 130.479 53.7369 130.497 53.735C132.219 53.5331 134.075 53.403 136.091 52.9279C134.329 51.9089 132.356 51.2356 130.265 51.4694C130.245 51.4715 130.225 51.4735 130.206 51.4756L130.163 51.4809C127.246 51.9148 124.464 52.546 121.647 53.1285C118.639 53.7636 115.642 54.4049 112.638 55.0462C112.562 55.0625 112.485 55.0788 112.408 55.0952L112.439 55.0891C102.279 57.0153 91.8828 57.5777 81.5123 57.4581C81.3363 57.456 81.1595 57.4537 80.9819 57.4511C71.2102 57.4725 61.7646 56.8189 51.615 58.666C51.319 58.7881 51.0486 58.8157 50.5383 59.2844C46.1205 62.6541 39.7441 65.9242 36.1744 71.4485C36.0588 71.6156 35.9443 71.7851 35.831 71.9571C31.1891 79.1279 27.0047 87.3639 27.5759 96.4704C27.5947 96.7123 27.6175 96.9534 27.6442 97.1938C27.7718 98.4249 27.9828 100.142 29.1887 101.418C30.3862 102.687 31.9813 103.092 33.3628 103.263C33.569 103.288 33.7569 103.305 33.9629 103.32C39.8875 103.733 45.8083 104.251 51.737 104.784C54.68 105.042 57.6762 105.32 60.679 105.474C62.1831 105.546 63.705 105.597 65.2749 105.489C66.7856 105.3 68.7534 105.359 70.1705 103.366C70.2469 103.241 70.3149 103.112 70.3744 102.979C71.054 101.448 71.5576 99.8567 71.8942 98.2063C71.9162 98.0974 71.9373 97.9882 71.9573 97.879C75.0625 89.9488 76.6929 80.5633 77.1281 71.7312C77.131 71.6823 77.1339 71.6334 77.1368 71.5844C78.1878 59.4603 75.9305 45.8906 77.1829 35.4133C77.201 35.3923 77.2194 35.3712 77.2382 35.3499C78.0994 34.3485 79.5566 33.1822 79.9109 31.2058C79.9174 31.1673 79.9238 31.1287 79.9302 31.0901C80.6201 27.0512 80.3326 22.4444 77.8003 18.8548C77.7834 18.8305 77.7665 18.8062 77.7497 18.782C75.2747 15.3352 73.2803 11.5398 70.0499 8.33741C68.9781 7.31355 67.7222 6.43404 66.3614 5.804C66.3375 5.79285 66.3136 5.78173 66.2896 5.77064C63.1259 4.31716 59.651 3.49679 56.563 2.70808Z" fill="white"/>
<path d="M32.5704 30.6708C32.5565 30.9778 32.5109 31.2734 32.4407 31.5585C32.2072 33.9966 32.844 36.5426 31.5264 38.5257C31.248 38.9447 30.4876 38.7081 30.074 38.201C29.6604 37.694 29.4812 36.8984 29.7965 36.1919C30.3537 34.9438 31.9644 33.4911 32.4407 31.5585C32.4692 31.2606 32.5107 30.9643 32.5704 30.6708Z" fill="#D9D9D9"/>
<path d="M32.7581 22.6559C32.6561 22.4375 32.4717 22.2685 32.2452 22.1861C32.0187 22.1038 31.7687 22.1147 31.5503 22.2167C31.3319 22.3186 31.163 22.5031 31.0806 22.7296C30.9982 22.956 31.0092 23.206 31.1111 23.4244C31.0978 23.3834 31.16 23.5932 31.185 23.7292C31.2162 23.881 31.2444 24.0432 31.2706 24.2082C31.322 24.5336 31.3659 24.8752 31.4041 25.2131C31.5906 26.9002 31.67 28.6218 31.6668 30.3318C31.6667 30.3862 31.6664 30.4407 31.666 30.4952C31.6836 32.2269 30.2495 33.5243 29.0154 35.6121C28.9842 35.6738 28.9538 35.7383 28.9255 35.8031C28.5284 36.7143 28.6917 37.7345 29.1915 38.5167C29.2474 38.6039 29.3074 38.6895 29.3726 38.7732C29.6204 39.0858 29.9079 39.3332 30.277 39.5172C30.6402 39.6763 31.1417 39.891 31.8568 39.5314C32.0528 39.422 32.2309 39.2527 32.349 39.0722C34.5689 35.1012 32.3632 31.3027 34.3468 28.9476C34.3785 28.904 34.4106 28.8613 34.4439 28.8184C35.2009 27.7872 36.5243 27.1101 37.6671 25.6567C37.7136 25.5938 37.7569 25.5291 37.7969 25.4628C38.3779 24.4496 38.2178 23.4142 37.8663 22.5865C37.8475 22.544 37.828 22.5024 37.8082 22.4623C37.385 21.6692 36.8116 21.1251 36.787 21.0678C36.784 21.0689 36.7809 21.0696 36.7777 21.0695C36.5896 21.106 36.6634 19.9923 37.1991 19.6056C37.2124 19.5948 37.2261 19.5843 37.24 19.5742C37.395 19.4614 37.5548 19.3539 37.7175 19.2506C38.3039 18.8791 38.9269 18.5587 39.5507 18.2352C39.5848 18.2175 39.6104 18.1871 39.622 18.1506C39.6336 18.114 39.6302 18.0744 39.6126 18.0403C39.595 18.0063 39.5646 17.9807 39.528 17.9691C39.4915 17.9575 39.4518 17.9608 39.4178 17.9785C38.7939 18.3022 38.1645 18.6253 37.5626 19.0066C37.3955 19.1126 37.2307 19.2234 37.0699 19.3404C37.0555 19.3509 37.0409 19.3611 37.0261 19.3711C36.7373 19.5676 36.371 19.6612 35.9846 19.8517C35.6188 20.0362 35.1266 20.3712 35.0775 21.0919C35.0751 21.1487 35.0756 21.206 35.0791 21.2638C35.301 22.5586 35.8869 22.9183 36.0338 23.3367C36.0422 23.3537 36.05 23.3703 36.057 23.386C36.2453 23.7908 36.245 24.2708 36.118 24.4521C36.1099 24.4657 36.1013 24.4785 36.0922 24.4909C35.404 25.4408 33.9702 26.2413 32.9008 27.6205C32.8553 27.679 32.811 27.7379 32.767 27.7984C30.1837 31.4335 32.35 35.7172 30.7038 37.9791C30.7423 37.9193 30.8127 37.8514 30.8831 37.8128C31.155 37.6951 31.1179 37.8017 31.0368 37.7702C30.9548 37.7563 30.8397 37.697 30.7753 37.6289C30.7519 37.6039 30.7298 37.5756 30.7099 37.5446C30.5191 37.2491 30.5331 36.8432 30.6675 36.5807C30.6836 36.5462 30.7016 36.5092 30.7206 36.4716C31.5227 34.9908 33.4796 33.1358 33.4835 30.5069C33.4838 30.4502 33.4841 30.3936 33.4842 30.3371C33.4871 28.5588 33.4065 26.7891 33.2101 25.0093C33.1014 24.2462 33.1173 23.7132 32.7581 22.6559Z" fill="white"/>
</svg>
