<svg width="139" height="107" viewBox="0 0 139 107" fill="none" xmlns="http://www.w3.org/2000/svg">
<path d="M89.2224 6.44577C89.221 6.44515 89.2197 6.44453 89.2184 6.44391C88.8869 6.19909 88.4154 5.85044 87.9829 5.5299C85.2088 3.58937 82.4377 1.24704 73.6578 1.2343C61.2254 1.21627 55.2813 0.897819 43.8742 5.73504C33.8737 9.97577 21.055 15.6133 15.1414 19.005C10.9988 21.3809 7.70723 23.1428 5.58418 26.3443C3.69235 29.1971 2.74141 33.4325 1.82501 38.0257C1.04756 41.9226 0.598236 54.1597 2.42107 66.9597C3.07343 71.5405 5.11743 77.2153 6.61449 84.124C8.73289 93.9 8.67902 101.547 12.8373 102.125C14.5141 102.358 18.622 101.949 28.7709 101.959C35.8051 101.966 46.438 102.139 62.9128 102.518C79.3875 102.897 101.063 103.182 113.169 103.979C127.796 104.942 131.92 105.919 133.895 104.906C134.693 104.496 134.907 103.737 134.963 102.971C135.019 102.204 134.948 101.448 134.752 100.613C133.942 97.1495 132.59 90.468 129.776 82.757C128.276 78.6496 127.512 73.9161 123.955 70.3969C121.102 67.5751 117.111 64.6442 111.637 63.5791C100.294 61.3719 96.0816 59.8841 94.2734 56.6517C91.9661 52.5272 91.9151 47.5586 84.5358 43.1625C79.1476 39.9525 62.1187 37.9036 63.3397 32.7772C63.4257 32.4163 64.2542 32.3326 65.1186 32.4728C69.4326 33.1726 84.1979 38.1115 99.273 37.7347C115.546 37.328 142.351 33.4054 136.264 31.5409C132.525 30.3955 117.756 28.5834 110.246 24.6122C106.425 22.5915 103.384 20.8635 101.441 18.038C99.3614 15.0127 97.7081 11.0403 92.0656 7.90237C91.0978 7.36419 90.1483 6.88028 89.2224 6.44577Z" fill="#314FF8"/>
<path d="M74.6033 3.92747C74.3494 3.96874 74.0894 3.90745 73.8807 3.75708C73.6719 3.6067 73.5315 3.37956 73.4902 3.12562C73.4489 2.87168 73.5102 2.61174 73.6606 2.40299C73.811 2.19424 74.0381 2.05378 74.292 2.01251C80.9814 1.6766 86.8598 4.03802 92.3679 6.96098C92.4242 6.99201 92.4806 7.02322 92.5371 7.0546C95.3193 8.57175 97.8011 10.8003 99.5966 13.4042C100.518 14.7011 101.293 16.0558 102.118 17.2834C102.163 17.3497 102.208 17.4153 102.253 17.4802C104.114 20.1967 107.274 21.8715 110.391 23.5379C110.5 23.5959 110.611 23.6543 110.722 23.7129C118.382 27.4378 127.228 28.4408 135.912 30.3708C136.118 30.4232 136.36 30.4887 136.567 30.5525C136.706 30.5951 136.837 30.6402 136.961 30.69C137.089 30.7427 137.188 30.7823 137.377 30.8908C137.461 30.9402 137.543 30.9953 137.626 31.0612C137.667 31.0941 137.708 31.1298 137.748 31.169C137.803 31.2217 137.867 31.2926 137.923 31.3695C138.162 31.6566 138.269 32.2627 138.078 32.6575C137.744 33.3211 137.432 33.3983 137.209 33.5611C136.928 33.7246 136.763 33.7969 136.521 33.9008C135.659 34.2563 134.842 34.4797 134.005 34.6981C132.355 35.1182 130.721 35.4377 129.071 35.734C125.791 36.3162 122.483 36.7761 119.19 37.1748C112.584 37.9593 105.963 38.5392 99.2977 38.7219C98.3927 38.7442 97.4885 38.7478 96.586 38.7346C85.7688 38.6223 75.1188 35.8796 64.958 33.4627C64.7038 33.4214 64.4407 33.4027 64.2244 33.4153C64.1194 33.4207 64.0211 33.4385 63.9934 33.4482C63.9813 33.4508 63.9889 33.4556 64.0514 33.4142C64.1054 33.3792 64.2609 33.2434 64.3155 33.0096C64.2961 33.0912 64.2856 33.1662 64.2819 33.2374C64.2623 33.5649 64.3921 33.9111 64.7085 34.2817C69.8637 38.457 78.117 38.7272 85.063 42.2774C86.1009 42.8943 87.1081 43.5873 88.0444 44.3729C91.9675 47.3372 93.326 52.4972 95.1726 56.1487C95.6778 57.0627 96.432 57.7888 97.3725 58.3786C101.513 60.7334 106.85 61.493 111.84 62.5363C113.026 62.7647 114.192 63.0869 115.326 63.5013C118.898 64.7965 122.066 67.0131 124.706 69.6369C125.548 70.4683 126.281 71.405 126.896 72.3979C128.89 75.609 129.619 79.2111 130.777 82.3914C131.148 83.409 131.503 84.4323 131.842 85.4603C133.47 90.3557 134.682 95.4055 135.79 100.37C135.99 101.215 136.096 102.136 136.026 103.048C136.008 103.292 135.976 103.55 135.913 103.822C135.774 104.566 135.15 105.469 134.36 105.812C134.095 105.94 133.825 106.033 133.563 106.103C132.625 106.342 131.798 106.332 130.997 106.327C124.89 106.016 119.081 105.329 113.103 104.984C112.206 104.926 111.28 104.872 110.37 104.823C94.5864 104.049 78.7259 103.933 62.8888 103.558C62.1865 103.542 61.5135 103.526 60.8115 103.511C50.1346 103.277 39.4325 103.021 28.7698 102.987C28.2251 102.986 27.6966 102.987 27.1605 102.988C22.3476 102.944 17.8224 103.317 12.6962 103.141C12.0935 103.06 11.4766 102.835 10.9608 102.486C7.84012 99.7728 7.98546 96.3709 7.2645 93.3867C6.72356 90.3339 6.24629 87.3233 5.59163 84.3456C5.46973 83.7877 5.34381 83.2358 5.21222 82.6794C4.04443 77.5371 2.21463 72.5678 1.33267 67.1147C1.25893 66.6033 1.18936 66.0959 1.12273 65.584C0.0222778 56.3856 -0.544403 47.2205 0.726715 37.8066C0.804504 37.4151 0.882812 37.0247 0.963013 36.6323C1.75293 32.9856 2.43956 29.1845 4.63054 25.7119C4.84216 25.391 5.0668 25.08 5.30377 24.779C7.86378 21.567 11.3986 19.8333 14.5488 17.9717C14.8114 17.8202 15.104 17.6556 15.3692 17.5091C24.5334 12.6319 33.9668 8.66098 43.3977 4.61129C43.5586 4.54301 43.7185 4.47573 43.8774 4.40942C50.7353 1.38887 58.487 -0.0556754 65.93 0.0173693C68.5206 -0.0155897 71.0862 0.00811362 73.6596 0.0105318C73.7054 0.0105982 73.7511 0.0107267 73.7967 0.0109169C78.8762 -0.0735272 84.6466 1.3316 88.5127 4.77254L88.5332 4.78736C88.5383 4.79129 88.5433 4.79522 88.5484 4.79916C88.8191 5.0093 88.9992 5.34221 89.1792 5.67565C89.2688 5.84207 89.3593 6.00929 89.4602 6.16066C89.511 6.23667 89.5637 6.30817 89.6219 6.37489C89.6507 6.40797 89.681 6.44007 89.7114 6.46957C89.7279 6.48528 89.7436 6.49976 89.7591 6.51338C89.768 6.52106 89.7748 6.52702 89.7839 6.53444C89.7886 6.53827 89.791 6.54042 89.7961 6.54446C89.7984 6.5463 89.8004 6.54787 89.802 6.54913C89.8024 6.54951 89.8043 6.551 89.8051 6.55157C89.8055 6.5519 89.8057 6.55212 89.8057 6.55216C89.8058 6.55217 89.8057 6.55214 89.8055 6.552C89.8038 6.55088 89.8107 6.55553 89.7983 6.54704C89.7927 6.54403 89.8013 6.54663 89.763 6.52733C89.7402 6.52609 89.7676 6.49787 89.6042 6.50788C89.5084 6.49659 89.3503 6.71531 89.3956 6.80858C89.412 6.88474 89.4286 6.89639 89.4395 6.91522C89.4743 6.96044 89.473 6.95283 89.4793 6.95987C89.4931 6.97187 89.4908 6.96947 89.4929 6.97123C89.495 6.97284 89.495 6.97279 89.495 6.97286C89.489 6.96791 89.4784 6.95983 89.4702 6.95375C88.7806 6.44348 88.0908 5.93393 87.4009 5.42397C87.3452 5.38282 87.3082 5.32125 87.2979 5.2528C87.2877 5.18435 87.305 5.11462 87.3461 5.05895C87.3873 5.00329 87.4488 4.96625 87.5173 4.95598C87.5858 4.94571 87.6555 4.96305 87.7111 5.00419C88.4012 5.51428 89.0903 6.02331 89.7811 6.53444C89.79 6.54108 89.7982 6.54689 89.8097 6.55512C89.8106 6.55578 89.8111 6.55615 89.8135 6.55799C89.8158 6.55988 89.8136 6.55756 89.8275 6.56959C89.8337 6.57664 89.8324 6.56903 89.8673 6.61426C89.8781 6.63309 89.8948 6.64474 89.9112 6.7209C89.9564 6.81417 89.7983 7.03289 89.7025 7.0216C89.5391 7.03161 89.5665 7.00339 89.5437 7.00215C89.5054 6.98284 89.514 6.98543 89.5084 6.98239C89.4954 6.97347 89.5019 6.97786 89.5001 6.97669C89.4997 6.97636 89.4993 6.97609 89.4989 6.97583C89.4982 6.97532 89.4975 6.97486 89.4967 6.97435C89.4954 6.97342 89.4931 6.97179 89.4925 6.97145C89.4906 6.97017 89.4884 6.96867 89.4858 6.96693C89.4802 6.9631 89.4774 6.96136 89.4723 6.95796C89.4623 6.95141 89.4546 6.94663 89.4445 6.94034C89.4268 6.92953 89.4083 6.91878 89.3884 6.90764C89.3512 6.88728 89.3115 6.86768 89.2713 6.84995C89.1903 6.81393 89.1064 6.78457 89.0188 6.75828C88.8443 6.70634 88.6578 6.66887 88.4723 6.63188C88.1004 6.55733 87.7289 6.48203 87.4483 6.28359C87.443 6.27987 87.4378 6.27615 87.4325 6.27244L87.4531 6.28725C83.4633 3.13942 78.7424 2.44562 73.7865 2.45844C73.7432 2.45826 73.6997 2.45814 73.656 2.45808C71.0745 2.45557 68.5116 2.432 65.9624 2.46423C58.609 2.41258 51.5286 3.73515 44.8171 6.66277C44.6627 6.72712 44.5073 6.79246 44.3507 6.8588C34.9607 10.8835 25.4644 14.8621 16.5208 19.5979C16.265 19.7385 15.9842 19.8954 15.734 20.0382C12.5265 21.893 9.20903 23.5508 7.10291 26.2027C6.9037 26.4529 6.71547 26.7106 6.53784 26.9767C4.69774 29.8154 3.92218 33.5007 3.15907 37.0832C3.07933 37.4699 3.00117 37.8562 2.92331 38.2449C1.72467 46.9949 2.23337 56.3354 3.30762 65.3017C3.37207 65.8045 3.43892 66.3027 3.50946 66.8047C4.2988 71.8645 6.08133 76.9744 7.25571 82.1997C7.38799 82.7675 7.51463 83.3315 7.63736 83.9024C9.15294 89.7029 8.85606 97.1491 12.1011 100.782C12.3635 100.957 12.6486 101.064 12.9784 101.11C17.3838 101.246 22.4221 100.898 27.1534 100.933C27.6927 100.931 28.2242 100.93 28.7719 100.931C39.4756 100.958 50.1751 101.197 60.8586 101.431C61.5608 101.447 62.2341 101.462 62.9367 101.478C78.7651 101.857 94.6127 102.01 110.479 102.807C111.395 102.858 112.329 102.913 113.235 102.974C119.198 103.329 125.218 104.042 131.028 104.337C131.752 104.348 132.484 104.321 133.031 104.165C133.183 104.122 133.316 104.066 133.43 103.999C133.675 103.841 133.742 103.704 133.837 103.339C133.867 103.21 133.887 103.059 133.899 102.893C133.949 102.224 133.878 101.551 133.714 100.856C132.596 95.8493 131.416 90.9382 129.818 86.1279C129.485 85.1204 129.138 84.1183 128.774 83.1226C127.551 79.72 126.828 76.3144 125.08 73.5263C124.543 72.661 123.919 71.8645 123.203 71.1568C120.726 68.6952 117.828 66.6813 114.593 65.5044C113.565 65.1279 112.511 64.8334 111.435 64.6219C106.361 63.513 101.191 62.8729 96.2735 60.1212C95.1322 59.4124 94.0553 58.3978 93.3742 57.1548C91.2195 52.8132 90.2147 48.6335 86.7177 45.9543C85.8812 45.2524 84.9665 44.6196 84.0085 44.0476C77.7818 40.7287 69.8109 40.8466 63.1963 35.5736C62.6835 34.9905 62.2155 34.092 62.2784 33.133C62.2887 32.9366 62.3175 32.7397 62.3639 32.5448C62.4546 32.1542 62.7236 31.8902 62.9073 31.7663C63.1022 31.6336 63.2575 31.5778 63.3976 31.5326C63.6755 31.4486 63.8954 31.4266 64.108 31.4127C64.5289 31.3902 64.9045 31.4233 65.2792 31.4829C75.8232 33.9863 86.0206 36.6407 96.6149 36.7608C97.4926 36.7736 98.3708 36.7697 99.2483 36.7475C105.813 36.563 112.398 35.965 118.945 35.1656C122.208 34.7598 125.486 34.2929 128.708 33.7129C130.326 33.4185 131.929 33.1003 133.491 32.6999C134.275 32.496 135.055 32.2732 135.718 31.997C135.896 31.9211 136.017 31.8639 136.152 31.785C136.256 31.7482 136.341 31.5672 136.169 31.8658C136.063 32.0565 136.138 32.4733 136.249 32.5836C136.356 32.7145 136.347 32.6772 136.329 32.6732C136.262 32.6347 136.151 32.5877 135.962 32.5294C135.798 32.479 135.587 32.4215 135.401 32.3742C126.966 30.4812 118.007 29.518 109.771 25.5115C109.659 25.4522 109.548 25.3932 109.437 25.3343C106.315 23.641 102.874 21.8521 100.63 18.5957C100.581 18.5247 100.533 18.4535 100.485 18.3819C99.6017 17.0559 98.8551 15.7412 97.999 14.5313C96.3353 12.1162 94.1611 10.1588 91.5941 8.75014C91.5399 8.72001 91.4858 8.69005 91.4317 8.66026C86.2466 5.84403 80.1806 3.63735 74.6033 3.92747Z" fill="#FDFBEF"/>
<path d="M62.104 71.5212C61.8301 66.9072 61.786 62.5392 61.8499 58.5296C77.6099 58.4261 85.8481 59.0718 86.8185 60.0761C89.1681 62.5077 96.4278 65.1088 101.361 72.6051C106.911 81.0402 110.189 89.5477 109.347 97.0611L109.339 97.131C109.121 99.0892 108.819 101.792 104.129 102.123C79.9897 103.823 70.4375 106.056 68.8422 102.511C68.1405 100.951 67.6017 99.2548 67.309 97.6768C66.6779 94.274 63.2036 90.0397 62.104 71.5212Z" fill="#314FF8"/>
<path d="M81.6133 2.70808C81.8415 2.62894 82.0919 2.64372 82.3092 2.74917C82.5266 2.85461 82.6931 3.04209 82.7723 3.27034C82.8514 3.4986 82.8366 3.74895 82.7312 3.96631C82.6257 4.18367 82.4383 4.35024 82.21 4.42937C78.7751 5.31744 75.6365 6.05842 72.6517 7.42402C72.6297 7.43422 72.6077 7.44444 72.5857 7.45469C71.403 8.00392 70.3373 8.75127 69.3882 9.6624C66.52 12.4985 64.4619 16.3591 61.9918 19.8617C61.9749 19.8864 61.9579 19.9111 61.9409 19.9359C59.8123 22.985 59.541 26.9954 60.2188 30.7553C60.225 30.791 60.2314 30.8267 60.2378 30.8624C60.4048 31.9043 61.4213 32.788 62.5054 33.9683C62.5283 33.9943 62.5511 34.0204 62.5738 34.0467C64.91 47.6218 61.938 59.0446 63.1686 71.458C63.1715 71.5063 63.1744 71.5546 63.1774 71.6028C63.6755 80.519 65.0876 88.8311 68.3991 97.4746C68.4172 97.5708 68.4361 97.6672 68.456 97.7636C68.7593 99.2275 69.2623 100.672 69.8825 102.042C69.9036 102.088 69.9263 102.131 69.951 102.171C78.7449 104.872 92.5913 101.229 104.045 100.926C104.214 100.914 104.367 100.899 104.531 100.88C106.932 100.62 108.035 99.5239 108.162 96.9284C108.187 96.7146 108.207 96.4998 108.224 96.284C108.777 88.1623 104.893 80.2069 100.376 73.2531C100.272 73.0959 100.168 72.9409 100.063 72.7881C96.6916 67.6317 91.4233 65.0374 85.9992 60.8678C86.1635 61.0019 85.9701 60.8582 85.8183 60.8192C76.8959 59.2142 66.8065 59.6907 57.2268 59.7067C57.0475 59.7092 56.869 59.7116 56.6912 59.7137C46.2236 59.8348 35.6623 59.2778 25.3252 57.3229L25.2943 57.3168C25.2174 57.3004 25.1408 57.2841 25.0646 57.2679C22.0601 56.6279 19.0631 55.988 16.0604 55.3552C13.2573 54.7758 10.4461 54.1437 7.68992 53.7353L7.7326 53.7406C7.71468 53.7387 7.69681 53.7369 7.67896 53.735C5.95775 53.5331 4.10087 53.403 2.08508 52.9279C3.84741 51.9089 5.82002 51.2356 7.91161 51.4694C7.93137 51.4715 7.95107 51.4735 7.97073 51.4756L8.01341 51.4809C10.9304 51.9148 13.7126 52.546 16.5297 53.1285C19.5376 53.7636 22.534 54.4049 25.5386 55.0462C25.6148 55.0625 25.6913 55.0788 25.7682 55.0952L25.7374 55.0891C35.8969 57.0153 46.2935 57.5777 56.6639 57.4581C56.84 57.456 57.0168 57.4537 57.1943 57.4511C66.966 57.4725 76.4117 56.8189 86.5613 58.666C86.8572 58.7881 87.1277 58.8157 87.6379 59.2844C92.0558 62.6541 98.4321 65.9242 102.002 71.4485C102.117 71.6156 102.232 71.7851 102.345 71.9571C106.987 79.1279 111.172 87.3639 110.6 96.4704C110.582 96.7123 110.559 96.9534 110.532 97.1938C110.405 98.4249 110.193 100.142 108.988 101.418C107.79 102.687 106.195 103.092 104.813 103.263C104.607 103.288 104.419 103.305 104.213 103.32C98.2887 103.733 92.3679 104.251 86.4392 104.784C83.4962 105.042 80.5 105.32 77.4972 105.474C75.9932 105.546 74.4712 105.597 72.9014 105.489C71.3907 105.3 69.4228 105.359 68.0058 103.366C67.9294 103.241 67.8614 103.112 67.8019 102.979C67.1222 101.448 66.6187 99.8567 66.282 98.2063C66.26 98.0974 66.239 97.9882 66.2189 97.879C63.1137 89.9488 61.4834 80.5633 61.0482 71.7312C61.0453 71.6823 61.0424 71.6334 61.0395 71.5844C59.9885 59.4603 62.2458 45.8906 60.9934 35.4133C60.9753 35.3923 60.9568 35.3712 60.9381 35.3499C60.0769 34.3485 58.6197 33.1822 58.2654 31.2058C58.2589 31.1673 58.2525 31.1287 58.2461 31.0901C57.5562 27.0512 57.8437 22.4444 60.376 18.8548C60.3929 18.8305 60.4097 18.8062 60.4266 18.782C62.9015 15.3352 64.896 11.5398 68.1263 8.33741C69.1981 7.31355 70.4541 6.43404 71.8149 5.804C71.8387 5.79285 71.8627 5.78173 71.8866 5.77064C75.0504 4.31716 78.5252 3.49679 81.6133 2.70808Z" fill="white"/>
<path d="M105.606 30.6708C105.62 30.9778 105.665 31.2734 105.736 31.5585C105.969 33.9966 105.332 36.5426 106.65 38.5257C106.928 38.9447 107.689 38.7081 108.102 38.201C108.516 37.694 108.695 36.8984 108.38 36.1919C107.823 34.9438 106.212 33.4911 105.736 31.5585C105.707 31.2606 105.666 30.9643 105.606 30.6708Z" fill="#D9D9D9"/>
<path d="M105.418 22.6559C105.52 22.4375 105.705 22.2685 105.931 22.1861C106.158 22.1038 106.408 22.1147 106.626 22.2167C106.844 22.3186 107.013 22.5031 107.096 22.7296C107.178 22.956 107.167 23.206 107.065 23.4244C107.078 23.3834 107.016 23.5932 106.991 23.7292C106.96 23.881 106.932 24.0432 106.906 24.2082C106.854 24.5336 106.81 24.8752 106.772 25.2131C106.586 26.9002 106.506 28.6218 106.509 30.3318C106.51 30.3862 106.51 30.4407 106.51 30.4952C106.493 32.2269 107.927 33.5243 109.161 35.6121C109.192 35.6738 109.222 35.7383 109.251 35.8031C109.648 36.7143 109.485 37.7345 108.985 38.5167C108.929 38.6039 108.869 38.6895 108.804 38.7732C108.556 39.0858 108.268 39.3332 107.899 39.5172C107.536 39.6763 107.035 39.891 106.319 39.5314C106.123 39.422 105.945 39.2527 105.827 39.0722C103.607 35.1012 105.813 31.3027 103.829 28.9476C103.798 28.904 103.766 28.8613 103.732 28.8184C102.975 27.7872 101.652 27.1101 100.509 25.6567C100.463 25.5938 100.419 25.5291 100.379 25.4628C99.7984 24.4496 99.9585 23.4142 100.31 22.5865C100.329 22.544 100.348 22.5024 100.368 22.4623C100.791 21.6692 101.365 21.1251 101.389 21.0678C101.392 21.0689 101.395 21.0696 101.399 21.0695C101.587 21.106 101.513 19.9923 100.977 19.6056C100.964 19.5948 100.95 19.5843 100.936 19.5742C100.781 19.4614 100.621 19.3539 100.459 19.2506C99.8724 18.8791 99.2494 18.5587 98.6255 18.2352C98.5915 18.2175 98.5658 18.1871 98.5542 18.1506C98.5426 18.114 98.546 18.0744 98.5636 18.0403C98.5813 18.0063 98.6117 17.9807 98.6482 17.9691C98.6848 17.9575 98.7244 17.9608 98.7584 17.9785C99.3824 18.3022 100.012 18.6253 100.614 19.0066C100.781 19.1126 100.946 19.2234 101.106 19.3404C101.121 19.3509 101.135 19.3611 101.15 19.3711C101.439 19.5676 101.805 19.6612 102.192 19.8517C102.557 20.0362 103.05 20.3712 103.099 21.0919C103.101 21.1487 103.101 21.206 103.097 21.2638C102.875 22.5586 102.289 22.9183 102.142 23.3367C102.134 23.3537 102.126 23.3703 102.119 23.386C101.931 23.7908 101.931 24.2708 102.058 24.4521C102.066 24.4657 102.075 24.4785 102.084 24.4909C102.772 25.4408 104.206 26.2413 105.275 27.6205C105.321 27.679 105.365 27.7379 105.409 27.7984C107.993 31.4335 105.826 35.7172 107.472 37.9791C107.434 37.9193 107.364 37.8514 107.293 37.8128C107.021 37.6951 107.058 37.8017 107.139 37.7702C107.221 37.7563 107.337 37.697 107.401 37.6289C107.424 37.6039 107.446 37.5756 107.466 37.5446C107.657 37.2491 107.643 36.8432 107.509 36.5807C107.493 36.5462 107.475 36.5092 107.456 36.4716C106.654 34.9908 104.697 33.1358 104.693 30.5069C104.692 30.4502 104.692 30.3936 104.692 30.3371C104.689 28.5588 104.77 26.7891 104.966 25.0093C105.075 24.2462 105.059 23.7132 105.418 22.6559Z" fill="white"/>
</svg>
