<svg width="130" height="54" viewBox="0 0 130 54" fill="none" xmlns="http://www.w3.org/2000/svg">
<path d="M127.057 10.5528C117.367 23.6186 97.5802 50.0985 95.9523 51.4921C94.3244 52.8858 68.7236 52.0728 56.1267 51.4921L30.5453 43.5075L2.05691 1.26166L56.1267 7.9397L60.0511 5.32655L62.6674 8.95592L73.8592 10.5528H127.057Z" fill="#314FF8"/>
<path d="M2.05691 1.26166L47.4057 32.3291L76.1848 24.461M2.05691 1.26166L30.5453 43.5075L56.1267 51.4921C68.7236 52.0728 94.3244 52.8858 95.9523 51.4921C97.5802 50.0985 117.367 23.6186 127.057 10.5528M2.05691 1.26166L56.1267 7.9397M127.057 10.5528H73.8592L62.6674 8.95592M127.057 10.5528L76.1848 24.461M56.1267 7.9397L60.0511 5.32655L62.6674 8.95592M56.1267 7.9397L42.8999 26.0865L48.2778 30.0063L76.1848 24.461M62.6674 8.95592L76.1848 24.461" stroke="white" stroke-width="2"/>
</svg>
