<svg width="179" height="179" viewBox="0 0 179 179" fill="none" xmlns="http://www.w3.org/2000/svg">
<rect x="0.5" y="0.5" width="178" height="178" rx="89" stroke="#0040FF"/>
<path d="M72.5799 78.492C72.0619 78.492 71.6419 78.072 71.6419 77.568C71.6419 77.05 72.0619 76.644 72.5799 76.644C73.0979 76.644 73.5039 77.05 73.5039 77.568C73.5039 78.072 73.0839 78.492 72.5799 78.492ZM73.2099 86.5H71.8939L71.9219 80.802C71.9219 80.564 71.8659 80.522 71.5299 80.466L71.0539 80.382V79.99C71.0679 79.934 72.6639 79.458 72.8459 79.458L73.1959 79.528L73.2099 86.5ZM77.1701 86.5H75.9101L75.9941 80.802C75.9941 80.578 75.9241 80.522 75.5881 80.466L75.0981 80.382V79.99C75.1261 79.92 76.7361 79.458 76.9461 79.458L77.2961 79.528L77.2541 81.628H77.3241C78.3881 80.102 79.2421 79.458 80.1801 79.458C81.4121 79.458 81.8461 80.088 81.8461 81.852V86.5H80.6001V82.286C80.6001 81.026 80.3901 80.564 79.8161 80.564C79.0881 80.564 78.1081 81.446 77.2121 82.888L77.1701 86.5ZM85.8459 86.696C84.9919 86.696 84.1379 86.5 83.3539 86.108L83.7039 84.96H83.8159C84.4599 85.478 85.3559 85.8 86.1679 85.8C87.0499 85.8 87.6239 85.436 87.6239 84.862C87.6239 83.084 83.7039 84.288 83.7039 81.628C83.7039 80.354 84.8099 79.458 86.3919 79.458C87.1619 79.458 87.9459 79.654 88.6459 80.018L88.1979 81.124H88.0439C87.5259 80.62 86.7559 80.312 86.0279 80.312C85.2999 80.312 84.8379 80.634 84.8379 81.138C84.8379 82.972 88.7439 81.866 88.7439 84.33C88.7439 85.73 87.5539 86.696 85.8459 86.696ZM91.4881 78.492C90.9701 78.492 90.5501 78.072 90.5501 77.568C90.5501 77.05 90.9701 76.644 91.4881 76.644C92.0061 76.644 92.4121 77.05 92.4121 77.568C92.4121 78.072 91.9921 78.492 91.4881 78.492ZM92.1181 86.5H90.8021L90.8301 80.802C90.8301 80.564 90.7741 80.522 90.4381 80.466L89.9621 80.382V79.99C89.9761 79.934 91.5721 79.458 91.7541 79.458L92.1041 79.528L92.1181 86.5ZM96.0816 86.752C94.7936 86.752 94.1496 85.73 94.1496 83.686C94.1496 81.012 95.6336 79.514 98.2516 79.514C98.5876 79.514 98.6576 79.514 98.7556 79.528L98.7696 78.24C98.7696 78.016 98.7136 77.96 98.3776 77.904L97.9016 77.82V77.428C97.9016 77.372 99.4696 76.896 99.6656 76.896L100.03 76.966L100.016 85.38C100.016 85.632 100.058 85.66 100.422 85.73L100.926 85.828V86.262C100.898 86.318 99.3296 86.64 99.0916 86.64L98.7276 86.5L98.7416 84.428H98.6856C97.8736 86.094 97.1316 86.752 96.0816 86.752ZM96.6556 85.66C97.1596 85.618 98.1536 84.344 98.7416 82.986L98.7696 80.536C98.6156 80.48 98.3216 80.452 97.9016 80.452C96.3616 80.452 95.4936 81.544 95.4936 83.49C95.4936 84.988 95.9276 85.8 96.6556 85.66ZM105.788 85.702C106.586 85.702 107.132 85.618 108.098 85.324L107.972 86.122C107.258 86.472 106.152 86.696 105.214 86.696C103.212 86.696 102.12 85.576 102.12 83.49C102.12 81.082 103.436 79.458 105.368 79.458C107.076 79.458 108 80.592 108 82.664V82.972C107.44 83.126 105.592 83.294 103.408 83.406C103.478 84.96 104.262 85.702 105.788 85.702ZM105.158 80.396C104.108 80.396 103.52 81.18 103.422 82.692L106.726 82.188C106.586 81.082 105.998 80.396 105.158 80.396ZM70.0519 98.696C68.0499 98.696 66.8879 97.492 66.8879 95.392C66.8879 93.068 68.3159 91.458 70.3739 91.458C71.1999 91.458 72.0679 91.724 72.6699 92.144L72.2359 93.306H72.0399C71.5359 92.648 70.8639 92.27 70.2199 92.27C69.0159 92.27 68.2459 93.376 68.2459 95.126C68.2459 96.82 69.0439 97.674 70.5979 97.674C71.2559 97.674 71.6619 97.604 72.6699 97.296L72.5579 98.122C71.7879 98.472 70.8359 98.696 70.0519 98.696ZM75.4406 98.696C74.4326 98.696 73.8306 98.108 73.8306 97.114C73.8306 95.644 75.3146 94.678 77.9606 94.44L77.9466 93.88C77.9186 92.9 77.6666 92.592 76.8826 92.592C76.0986 92.592 74.9646 92.802 74.1526 93.11L74.2646 92.158C75.2306 91.724 76.3926 91.458 77.3446 91.458C78.5766 91.458 79.1506 92.102 79.1646 93.502L79.2206 97.352C79.2206 97.59 79.2626 97.632 79.6546 97.716L80.2006 97.828V98.276C80.1726 98.318 78.5066 98.654 78.4086 98.64L78.0306 98.514L78.0586 97.282H77.9886C77.2046 98.22 76.3506 98.696 75.4406 98.696ZM75.8186 97.632C76.5326 97.632 77.3586 97.17 77.9746 96.414V95.196C76.1126 95.35 75.0066 95.966 75.0066 96.848C75.0066 97.338 75.3146 97.632 75.8186 97.632ZM90.2606 91.458C91.4926 91.458 91.9266 92.088 91.9266 93.852V98.5H90.6806V94.286C90.6806 93.026 90.4706 92.564 89.8966 92.564C89.2246 92.564 88.2446 93.46 87.4606 94.79V98.5H86.2286V94.286C86.2286 93.054 86.0046 92.564 85.4446 92.564C84.7726 92.564 83.8206 93.474 82.9946 94.902L82.9526 98.5H81.7066L81.7906 92.802C81.7906 92.578 81.7206 92.522 81.3846 92.466L80.9086 92.382V91.99C80.9226 91.934 82.5466 91.458 82.7286 91.458L83.0786 91.528L83.0506 93.628H83.1206C84.1426 92.074 84.8986 91.458 85.7946 91.458C86.9706 91.458 87.4186 92.032 87.4606 93.628H87.5166C88.5526 92.088 89.3506 91.458 90.2606 91.458ZM97.4758 97.702C98.2738 97.702 98.8198 97.618 99.7858 97.324L99.6598 98.122C98.9458 98.472 97.8398 98.696 96.9018 98.696C94.8998 98.696 93.8078 97.576 93.8078 95.49C93.8078 93.082 95.1238 91.458 97.0558 91.458C98.7638 91.458 99.6878 92.592 99.6878 94.664V94.972C99.1278 95.126 97.2798 95.294 95.0958 95.406C95.1658 96.96 95.9498 97.702 97.4758 97.702ZM96.8458 92.396C95.7958 92.396 95.2078 93.18 95.1098 94.692L98.4138 94.188C98.2738 93.082 97.6858 92.396 96.8458 92.396ZM105.262 91.444C105.486 91.444 105.71 91.5 105.934 91.598L105.64 92.942C105.066 92.858 104.716 92.774 104.408 92.774C104.058 92.774 103.792 92.872 103.344 93.194L103.302 93.208L103.316 98.5H102L102.028 92.802C102.028 92.564 101.972 92.522 101.65 92.466L101.146 92.382V91.99C101.174 91.92 102.756 91.458 102.952 91.458L103.302 91.528V92.648H103.414C104.072 91.836 104.66 91.444 105.262 91.444ZM108.212 98.696C107.204 98.696 106.602 98.108 106.602 97.114C106.602 95.644 108.086 94.678 110.732 94.44L110.718 93.88C110.69 92.9 110.438 92.592 109.654 92.592C108.87 92.592 107.736 92.802 106.924 93.11L107.036 92.158C108.002 91.724 109.164 91.458 110.116 91.458C111.348 91.458 111.922 92.102 111.936 93.502L111.992 97.352C111.992 97.59 112.034 97.632 112.426 97.716L112.972 97.828V98.276C112.944 98.318 111.278 98.654 111.18 98.64L110.802 98.514L110.83 97.282H110.76C109.976 98.22 109.122 98.696 108.212 98.696ZM108.59 97.632C109.304 97.632 110.13 97.17 110.746 96.414V95.196C108.884 95.35 107.778 95.966 107.778 96.848C107.778 97.338 108.086 97.632 108.59 97.632Z" fill="black"/>
</svg>
