<svg width="166" height="162" viewBox="0 0 166 162" fill="none" xmlns="http://www.w3.org/2000/svg">
<path d="M51.5098 90.2788L0.74791 33.085L70.3237 86.7264L75.6483 82.4635V59.0175C75.6483 59.0175 104.457 67.117 105.877 65.4119H135.285L164.748 86.7264L137.77 78.911L115.051 126.158L97.657 117.632L32.7479 159.5L51.5098 90.2788Z" fill="#314FF8"/>
<path d="M51.5098 90.2788L0.74791 33.085L70.3237 86.7264L75.6483 82.4635V59.0175C75.6483 59.0175 104.457 67.117 105.877 65.4119M51.5098 90.2788L32.7479 159.5M51.5098 90.2788H70.3237L92.3323 101.291M105.877 65.4119H135.285M105.877 65.4119L101.917 81.5753M135.285 65.4119L164.748 86.7264L137.77 78.911M135.285 65.4119L127.12 72.8719L115.051 126.158M137.77 78.911L115.051 126.158M137.77 78.911L129.96 76.0691M115.051 126.158L97.657 117.632M97.657 117.632L32.7479 159.5M97.657 117.632L110.791 109.462M32.7479 159.5L92.3323 101.291M110.791 109.462L94.8172 102.391M110.791 109.462L105.877 101.291M92.3323 101.291L94.8172 102.391M88.7825 72.8719L94.8172 102.391M88.7825 72.8719L105.877 101.291M88.7825 72.8719L101.917 81.5753M105.877 101.291L115.051 90.2788L101.917 81.5753" stroke="white" stroke-width="2"/>
</svg>
