<svg width="166" height="131" viewBox="0 0 166 131" fill="none" xmlns="http://www.w3.org/2000/svg">
<path d="M51.5098 91.2794L0.74791 34.0856L70.3237 87.727L75.6483 83.4641V60.0182C95.7638 41.072 136.35 2.75333 137.77 1.04817C139.189 -0.656987 136.705 43.9139 135.285 66.4125L164.748 87.727L137.77 79.9116L115.051 127.159L97.657 118.633L13.8821 130.001H11.0423L51.5098 91.2794Z" fill="#314FF8"/>
<path d="M51.5098 91.2794L0.74791 34.0856L70.3237 87.727L75.6483 83.4641V60.0182C95.7638 41.072 136.35 2.75333 137.77 1.04817M51.5098 91.2794L13.8821 130.001M51.5098 91.2794L11.0423 130.001M51.5098 91.2794H70.3237L92.3323 102.292M137.77 1.04817C139.189 -0.656987 136.705 43.9139 135.285 66.4125M137.77 1.04817L101.917 82.576M135.285 66.4125L164.748 87.727L137.77 79.9116M135.285 66.4125L127.12 73.8725L115.051 127.159M137.77 79.9116L115.051 127.159M137.77 79.9116L129.96 77.0697M115.051 127.159L97.657 118.633M97.657 118.633L13.8821 130.001M97.657 118.633L110.791 110.462M13.8821 130.001H11.0423M11.0423 130.001L92.3323 102.292M110.791 110.462L94.8172 103.392M110.791 110.462L105.877 102.292M92.3323 102.292L94.8172 103.392M88.7825 73.8725L94.8172 103.392M88.7825 73.8725L105.877 102.292M88.7825 73.8725L101.917 82.576M105.877 102.292L115.051 91.2794L101.917 82.576" stroke="white" stroke-width="2"/>
</svg>
